<?xml version="1.0" standalone="no"?>
<!DOCTYPE svg PUBLIC "-//W3C//DTD SVG 20010904//EN"
 "http://www.w3.org/TR/2001/REC-SVG-20010904/DTD/svg10.dtd">
<svg version="1.0" xmlns="http://www.w3.org/2000/svg"
 width="500.000000pt" height="500.000000pt" viewBox="0 0 500.000000 500.000000"
 preserveAspectRatio="xMidYMid meet">
<metadata>
Created by potrace 1.14, written by Peter Selinger 2001-2017
</metadata>
<g transform="translate(0.000000,500.000000) scale(0.100000,-0.100000)"
fill="#000000" stroke="none">
<path d="M2202 4849 c-29 -11 -54 -64 -50 -107 2 -27 -1 -37 -12 -38 -8 0 -28
-3 -45 -7 -16 -4 -48 -10 -69 -13 -22 -3 -51 -10 -65 -16 -14 -5 -27 -9 -28
-9 -13 2 -208 -62 -222 -73 -8 -6 -16 -10 -17 -9 -6 4 -34 -7 -147 -58 -59
-27 -111 -49 -115 -49 -4 0 -20 16 -35 35 -22 28 -35 35 -62 35 -51 0 -89 -37
-88 -85 1 -20 6 -42 12 -48 19 -19 12 -32 -36 -68 -27 -20 -83 -61 -125 -93
-42 -31 -132 -111 -200 -177 -107 -106 -125 -119 -143 -110 -85 43 -164 -34
-116 -113 22 -37 21 -41 -36 -126 -56 -83 -152 -276 -206 -416 -39 -99 -45
-109 -72 -114 -48 -10 -75 -32 -81 -68 -8 -42 9 -80 41 -92 28 -11 29 -12 15
-77 -5 -26 -11 -61 -14 -78 -2 -16 -7 -48 -10 -70 -4 -22 -8 -51 -10 -65 -2
-20 -11 -26 -45 -33 -48 -10 -74 -42 -73 -89 1 -40 37 -78 74 -78 28 0 28 0
29 -67 3 -113 6 -144 25 -283 18 -133 54 -288 85 -374 17 -45 34 -94 39 -111
21 -68 151 -303 239 -432 190 -278 505 -539 841 -696 240 -112 562 -201 808
-224 101 -9 312 -9 432 1 299 24 697 148 925 288 129 80 200 126 229 150 12 9
62 50 111 91 240 196 459 494 583 791 28 68 44 93 66 105 67 37 81 75 52 145
-10 24 -11 47 -5 87 5 30 10 64 11 76 2 15 11 24 29 28 71 16 95 96 42 145
l-31 29 5 173 c5 205 7 218 34 218 31 0 57 18 74 50 31 59 -16 124 -84 118
-29 -2 -36 1 -39 17 -24 151 -63 326 -82 365 -4 8 -15 40 -25 70 -51 159 -222
465 -326 583 -39 44 -41 49 -29 72 20 38 17 93 -8 117 -22 22 -67 28 -113 14
-22 -6 -32 -1 -70 36 -47 47 -148 133 -189 161 -14 10 -79 54 -145 98 -89 59
-120 86 -122 102 0 12 -1 29 -2 38 -1 9 -13 28 -27 42 -21 21 -33 26 -62 22
-19 -2 -42 -11 -52 -20 -24 -21 -39 -19 -138 19 -48 18 -95 36 -104 39 -12 4
-16 15 -14 39 9 104 -110 142 -163 52 -22 -37 -12 -36 -136 -13 -87 15 -119
21 -150 26 -16 2 -122 6 -235 7 l-204 2 -2 28 c-3 59 -68 105 -122 85z m1712
-1505 c4 -35 -20 -57 -46 -43 -10 5 -18 16 -18 24 0 8 -4 15 -10 15 -21 0 -9
18 23 33 36 18 47 12 51 -29z m-2842 -463 c-17 -10 -17 -21 -2 -31 8 -5 7 -10
-4 -19 -11 -9 -16 -9 -22 0 -4 7 -3 9 4 5 7 -4 10 1 9 14 -1 11 -7 20 -14 20
-7 0 -13 5 -13 10 0 6 12 10 28 10 18 0 23 -3 14 -9z m2568 -1196 c-8 -10 -8
-14 2 -17 8 -3 6 -7 -5 -11 -9 -3 -17 -2 -17 4 0 6 -6 7 -12 3 -9 -5 -8 -2 1
9 12 16 12 17 -5 12 -11 -4 -9 0 6 8 28 17 47 12 30 -8z"/>
</g>
</svg>
